PathFileType	4	(X/Y/Z)	62_2_45_p0_0-422.trc
DataRate	CameraRate	NumFrames	NumMarkers	Units	OrigDataRate	OrigDataStartFrame	OrigNumFrames
40.0	40.0	7	27	m	40.0	158	423
Frame#	Time	RHip			RKnee			RAnkle			RBigToe			RSmallToe			RHeel			LHip			LKnee			LAnkle			LBigToe			LSmallToe			LHeel			Neck			Head			Nose			RShoulder			RElbow			RWrist			RThumb			RIndex			RPinky			LShoulder			LElbow			LWrist			LThumb			LIndex			LPinky			
		X1	Y1	Z1	X2	Y2	Z2	X3	Y3	Z3	X4	Y4	Z4	X5	Y5	Z5	X6	Y6	Z6	X7	Y7	Z7	X8	Y8	Z8	X9	Y9	Z9	X10	Y10	Z10	X11	Y11	Z11	X12	Y12	Z12	X13	Y13	Z13	X14	Y14	Z14	X15	Y15	Z15	X16	Y16	Z16	X17	Y17	Z17	X18	Y18	Z18	X19	Y19	Z19	X20	Y20	Z20	X21	Y21	Z21	X22	Y22	Z22	X23	Y23	Z23	X24	Y24	Z24	X25	Y25	Z25	X26	Y26	Z26	X27	Y27	Z27	
158	3.95	0.34707133520317723	0.4612474479659041	0.2704702095523529	0.3574221597682197	0.7857136562431879	0.5638022374815093	0.32587660141360575	1.0599239406843017	0.822283913622785	0.29043521697566577	0.9366843835967571	0.9322323822918716	0.34391754247313033	0.9364635458233707	0.922771797085993	0.3164064162628246	1.1294420389494788	0.8375229058656775	0.16291147701177436	0.49664604170348053	0.23031035596766242	0.15598465734323122	0.8011013626822243	0.5429354638344366	0.1537290794258725	1.0640128254374315	0.8119709677274622	0.11881822039366158	0.9235935413639932	0.902628541083627	0.08667552944665961	0.9898116655262175	0.8746844962694306	0.1768123816757905	1.1347114640595164	0.8316322911056169	0.27766827858692766	0.12798226696551848	-0.20678564300283633	0.27321954277122634	-0.08000884430442322	-0.3585573366419279	0.2540014602530031	-0.04367832072043216	-0.2271132881017493	0.4237614531118471	0.11701995212701458	-0.09089107052778107	0.48632116968474515	0.29310176245361097	0.13195272390338986	0.45660578808019175	0.3099017017453596	0.3763438771434944	0.39424885858024855	0.3653907403389578	0.4609119911016292	0.40611031543217635	0.34652163282409537	0.491445264207708	0.4269068639908749	0.3804201745967546	0.47155610957898014	0.13890742333077502	0.20896360280652918	-0.19022939807881697	-0.010216459058241261	0.3593242991148197	-0.03659654410489866	-0.155636698101219	0.3475422562011814	0.18515728757145608	-0.18020565689268647	0.3112123508106576	0.3158963233596085	-0.21387022336552486	0.30134250097935356	0.3322349639820942	-0.20142292023383035	0.33620884679211444	0.3114002732413826
159	3.975	0.3537015983512166	0.47191192944793287	0.2667364139583598	0.35635172552490924	0.7822618910759008	0.5604721415651551	0.325673413136691	1.0794071127029414	0.8194265774240642	0.28964262077349395	0.9358034795666973	0.9343492189468713	0.348568875554708	0.940766277421959	0.9163362248301294	0.3239789168113787	1.1465063095399501	0.8360051029633947	0.1630217361540987	0.49668039406806025	0.23012097041485194	0.1575357550056661	0.7851668969920758	0.5467883665542871	0.15378199078839852	1.0641825332623323	0.8119649268576772	0.11929437009344583	0.9255344184841542	0.9073939991486635	0.08676323691005763	0.9912279993568941	0.8793351809022935	0.18285934310195018	1.1386456404070107	0.8315978984267984	0.2718237786089854	0.11890511461426757	-0.20132551397619874	0.27267813960877924	-0.06948092703060461	-0.36603379667530905	0.2538678706054727	-0.04369987269628502	-0.22706938315024716	0.4238978048801617	0.1291148292831551	-0.09761928900840565	0.485522743520098	0.2903809884507122	0.1291118691938473	0.4635640201846757	0.31808665597005803	0.37011434864385984	0.39854462236044663	0.35200198749975853	0.4650781795930962	0.41021979540395564	0.3469160219320221	0.4904132847107765	0.4410966954209368	0.38896995639428966	0.46579830001022665	0.12919653511930132	0.20083088652489314	-0.18104467926178802	-0.015770431650520965	0.35082394517354304	-0.02820868576505224	-0.14401969398487974	0.35179450427324527	0.20881828908406255	-0.1404291649658284	0.39801161230717164	0.31906727653490086	-0.17297366053912844	0.3566695629534528	0.3365512449022661	-0.17028501286639006	0.43972782105808134	0.30666665896991385
160	4.0	0.3530129372984232	0.4541178454806099	0.26920925353111413	0.3565488384135526	0.76585576689877	0.5650064076557573	0.325416585173391	1.0788970426999152	0.8192961424106412	0.2900712545084559	0.9300927564465871	0.9256970318990541	0.3438432176635984	0.930907400289066	0.9159315430627322	0.3165119429874893	1.1298314895291146	0.8374046359660746	0.15840015656258707	0.49609602340242864	0.23021018140718824	0.15558188397616585	0.7938410806339792	0.5356421349517937	0.15474198350392654	1.0611511299312244	0.8082094419413912	0.11896352223370119	0.9234037233226453	0.9028911139439402	0.08671478966357268	0.991064677808765	0.8791388506416009	0.18364459729486543	1.1338246914859509	0.8233198487248049	0.27106352046213356	0.1303000408798885	-0.20827437955586983	0.26812783405969104	-0.06694936287066848	-0.36385798254916896	0.25017999603479113	-0.04373507648494439	-0.2271014391672991	0.4184231059551798	0.12437082327752098	-0.10300638963301167	0.49237119304357546	0.29585975638949247	0.11824288620490482	0.4679219493904514	0.31606643009202096	0.3668991651798352	0.39838411124778367	0.34981382566596175	0.4615356471626313	0.41058789147269786	0.3422104723843272	0.4840256204157922	0.43066306124960096	0.3791484515946198	0.46833284959300103	0.13311570589913047	0.19902534629434274	-0.1842024352231851	-0.016344566953862036	0.3507815908895876	-0.027894938638456285	-0.12407064024991851	0.3657204112813782	0.2076130607659305	-0.10261415726773661	0.43828700558264067	0.30266627233178683	-0.1362890506013378	0.4300001871748583	0.3150659280168868	-0.14720213012409666	0.47909395864315946	0.29386426218128636
161	4.025	0.35354542127481325	0.4719971281880426	0.2667384909578153	0.35667066935081443	0.7655190252952763	0.5641397220871368	0.32612445803111406	1.0605953891431799	0.8219597150454305	0.29165079048652415	0.9344278905590612	0.9292081116345406	0.3488186510192435	0.9397278162748087	0.9114817676278385	0.31714269533333617	1.131191996726825	0.8374821164046893	0.156932049493133	0.5105276812081458	0.22497639392660665	0.1555941562730285	0.7942078686714672	0.5354690152877192	0.15934819639553446	1.0614097726728187	0.8041725124796254	0.11919344324791123	0.9244548326375667	0.9028347887609488	0.08677477270110652	0.991359728093483	0.8792128819367285	0.18872527314076717	1.151404908166195	0.825408329855773	0.27094295457314804	0.1302333538480837	-0.20832285805393616	0.2675102930302957	-0.06916232438427991	-0.36600578472700385	0.24975748834964573	-0.04554183938608313	-0.22970464241041852	0.41920225959976737	0.1275628172750442	-0.10114386397603911	0.49271336626762285	0.2977516184333079	0.1214829088062679	0.4598546460390212	0.3164869178892812	0.36657991937882	0.3942736488529669	0.36421836889960124	0.4567346265436759	0.4096665802159099	0.3482948573390054	0.46701883816005396	0.42631098390920463	0.37231705055828185	0.45922117288985054	0.12678277404309785	0.21255082022995103	-0.18799928075478084	-0.016373275145818662	0.35258851387522433	-0.024557067817368217	-0.106083325767692	0.38977553812270677	0.19850706243399746	-0.07491287918093292	0.506328044440409	0.27000263035592653	-0.10949839197712409	0.492082989363781	0.2905938564395144	-0.13284268946084313	0.4888224744127833	0.28316106409461606
162	4.05	0.35092877698553665	0.48030103853758443	0.25476503570294107	0.35202377241529514	0.7651854536178795	0.5649289615680384	0.3260507858779193	1.06028447953448	0.821998935679074	0.2901775765245292	0.930354920003722	0.9264292370897523	0.3423612682762343	0.9278352281396826	0.9175125108504705	0.32399503877139824	1.1469258057223675	0.8357385939563373	0.16064383093431775	0.5076964751292734	0.22198166064038416	0.15577020689563437	0.7936103421577535	0.5342687758408954	0.15834122118363683	1.06436432366468	0.8076748401550938	0.11905026418263229	0.9240199429576232	0.9028165753436314	0.08671067521433203	0.99115790705413	0.8790981112312858	0.18864510964631112	1.1511384645600424	0.8252338968402041	0.25966787210369763	0.11612997234091803	-0.20821621091569775	0.25632090278959174	-0.06592440868878736	-0.3646030505369994	0.23977673427817273	-0.05736266618355728	-0.22969338978943762	0.41797634134986583	0.13327191386818826	-0.11620724399421743	0.5113123496497108	0.3019625521134376	0.09726135765270982	0.42765902867213773	0.2744141156167353	0.3604616543077134	0.3303712060406659	0.30077784052246975	0.45038928256283917	0.3430604003430548	0.3178480743662103	0.45713960357681255	0.4091546475756144	0.36752641615513193	0.44411782881244294	0.11590092859765336	0.2231188384423468	-0.194310556532541	-0.03146250755367506	0.37677204454292157	-0.027089471175104154	-0.06835298402942847	0.4354198001971472	0.1965202283303025	-0.03536571996763404	0.4982213671380226	0.2556000779071603	-0.06510335129995656	0.5154270653382256	0.27554993645666503	-0.08127194236545267	0.5133615899096564	0.27122903733247195
163	4.075	0.3504115573640263	0.49548532475867296	0.24886158934826344	0.35136501593653696	0.7797414981510473	0.5565903447644271	0.3259962948224321	1.060211383063029	0.8217378819767146	0.29007807350537995	0.9303274869669105	0.9260797873279547	0.3433029862199496	0.9480468100343943	0.9143525558824315	0.31679165272403287	1.1306120307445284	0.8369793792911745	0.16055508916045652	0.5074830006619101	0.2218926600611747	0.1549895398966735	0.7963844298161489	0.537861511866838	0.15365611246563735	1.0639959534407908	0.8117517889432851	0.12418763946417924	0.9377951999499632	0.9013166571114679	0.08672820334357097	0.9911526611916324	0.8789218521573898	0.18855167968860265	1.1510926339874648	0.8254478610452081	0.25944412027629105	0.11557319242380523	-0.2082422458370588	0.2568128135518268	-0.07630675431816074	-0.357221767672062	0.23960616006513452	-0.057670671515957284	-0.2297873803971281	0.417789787680285	0.1333464172264611	-0.11630667227445265	0.5165415499796846	0.30299660261059647	0.09693114624788428	0.4142309539008389	0.25526327351559797	0.34396853833722013	0.3242300979157752	0.28705371609302394	0.4123735193085548	0.328100090542925	0.3009975595803922	0.43185006227257644	0.3968767068615373	0.3767391633064097	0.4289478065025371	0.10602179399812113	0.21090858615780433	-0.19134504423843054	-0.036013000835920586	0.3652205763752293	-0.021853768948633754	-0.06450913718796106	0.4235639892303858	0.20127207341828512	-0.00930990082085378	0.5505223459635679	0.2595891428934055	-0.04347187828701068	0.5253329669509915	0.2857569779644948	-0.06376242859142787	0.5187470496943125	0.27946953573160344
164	4.1	0.35014506688279595	0.4731157728119526	0.24414108250243152	0.3519278633719396	0.7595743563186381	0.5566901644148701	0.3259248567713592	1.0586497985240366	0.8175135237128736	0.28434799426271723	0.917871202122628	0.9268500298419764	0.3429462894475146	0.9277818400164606	0.9121963972553706	0.31685289966756597	1.1305620795554627	0.8371125148111966	0.15649257613064552	0.5040966558161876	0.218882503757737	0.1555927013359939	0.7936284603205628	0.5353286133100881	0.15462190180648006	1.0598648824677364	0.8043373547357727	0.11873387778267956	0.9237749521290389	0.9024859939591795	0.08663180957494603	0.9897139133061696	0.874480601580248	0.18852489684071908	1.1508725843012557	0.8252662372879305	0.2593564753415249	0.11541280500381113	-0.20819893548155255	0.25677385736041564	-0.07756667912058136	-0.35977191532726494	0.23972146834646757	-0.05745150320710663	-0.23009082303305245	0.4172571911318469	0.1308177013272417	-0.1188305523382969	0.5224472483109195	0.32118802443487743	0.0812764310282099	0.40631980713859944	0.28813857649953695	0.2960702152527909	0.31036424795726764	0.28494332700454506	0.37816039771608695	0.31675008607924465	0.2814807043941023	0.3958580879430711	0.35089998597650446	0.32107645959419695	0.40988229458277764	0.11133014739284461	0.22271228317650438	-0.19445563691926895	-0.03717797738512301	0.35796702305226785	-0.014099398591636749	-0.03994723042405992	0.43149016886019737	0.21130983416017127	0.017556451605136515	0.49600701831389293	0.2898521060629802	-0.016075852529326466	0.4952803884768062	0.31195013694282236	-0.030761778325455784	0.5283294683886303	0.2853648352445882
